# xmcd CD database file
#
# Track frame offsets:
#	150
#	17957
#	33020
#	52830
#	75970
#	97912
#	117412
#	132040
#	152170
#	175260
#	191755
#
# Disc length: 3075 seconds
#
# Revision: 0
# Processed by: cddbd v1.5.2PL0 Copyright (c) Steve Scherf et al.
# Submitted via: CDex 1.70beta2
#
DISCID=7b0c010b
DTITLE=Various Artist - 926 E McLemore
DYEAR=1996
DGENRE=Blues
TTITLE0=Hey Rufus - Rufus Thomas
TTITLE1=Another Man's Name - Ollie Nightingale
TTITLE2=Front Line - Rance Allen
TTITLE3=Last Thing On My Mind - The Madlads
TTITLE4=Body Fine - The Barkays
TTITLE5=Just In Time - The Temprees
TTITLE6=Tricky Dick - Sir Mack Rice
TTITLE7=Let's Get It Together - Ben Cauley
TTITLE8=Uptown Lady - J. Blackfoot
TTITLE9=How Sweet It Would Be - Luther Ingram
TTITLE10=Drum Island - The Stax Rhythm Section
EXTD=YEAR: 1996
EXTT0=
EXTT1=
EXTT2=
EXTT3=
EXTT4=
EXTT5=
EXTT6=
EXTT7=
EXTT8=
EXTT9=
EXTT10=
PLAYORDER=
